<svg width="41" height="24" viewBox="0 0 41 24" fill="none" xmlns="http://www.w3.org/2000/svg">
<path id="Vector" d="M15.3045 16.6313C15.5095 17.1438 15.2533 17.725 14.728 17.9312C14.2027 18.1313 13.6069 17.8813 13.3955 17.3687L12.8381 15.9438H7.66187L7.10453 17.3687C6.89313 17.8813 6.29478 18.1313 5.76947 17.9312C5.24352 17.725 4.98791 17.1438 5.19803 16.6313L9.29547 6.63125C9.45563 6.19375 9.83359 6 10.25 6C10.6664 6 11.0444 6.19375 11.2045 6.63125L15.3045 16.6313ZM8.48187 14H12.0181L10.25 9.69375L8.48187 14ZM31.775 8H35.875C36.4387 8 36.9 8.45 36.9 9C36.9 9.55 36.4387 10 35.875 10H35.5675L35.2984 10.725C34.6898 12.3563 33.7353 13.8188 32.5117 15.0375C32.7167 15.175 32.8705 15.3062 33.1395 15.4312L34.3503 16.1437C34.8372 16.425 34.9973 17.0438 34.7027 17.5125C34.4144 17.9875 33.7802 18.1438 33.2997 17.8563L32.0889 17.15C31.6789 16.9125 31.2881 16.65 30.9037 16.3188C30.3784 16.7437 29.8275 17.0688 29.2381 17.3563L28.1362 17.8937C27.6302 18.1437 27.0088 17.9438 26.7589 17.45C26.5027 16.9563 26.7077 16.35 27.2137 16.1063L28.322 15.5688C28.668 15.4 28.9947 15.2125 29.315 15.0125L27.9761 13.7062C27.5725 13.3187 27.5725 12.6813 27.9761 12.2938C28.3733 11.9 29.0267 11.9 29.4239 12.2938L30.8717 13.7062L30.923 13.7563C32.0056 12.7188 32.8448 11.45 33.3702 10.0375L33.3894 9.94375H25.625C25.0612 9.94375 24.6 9.55 24.6 8.94375C24.6 8.45 25.0612 7.94375 25.625 7.94375H29.725V6.94375C29.725 6.45 30.1862 5.94375 30.75 5.94375C31.3137 5.94375 31.775 6.45 31.775 6.94375V8ZM41 20C41 22.2062 39.1614 24 36.9 24H4.1C1.83539 24 0 22.2062 0 20V4C0 1.79063 1.83539 0 4.1 0H36.9C39.1614 0 41 1.79063 41 4V20ZM19.475 2H4.1C2.96802 2 2.05 2.89375 2.05 4V20C2.05 21.1063 2.96802 22 4.1 22H19.475V2ZM21.525 2V22H36.9C38.0339 22 38.95 21.1063 38.95 20V4C38.95 2.89375 38.0339 2 36.9 2H21.525Z" fill="#612C69"/>
</svg>
