<svg width="22" height="22" viewBox="0 0 22 22" fill="none" xmlns="http://www.w3.org/2000/svg">
<g id="svgexport-3" clip-path="url(#clip0_122_43966)">
<path id="Vector" d="M11 -0.000244141C4.92422 -0.000244141 0 4.92397 0 10.9998C0 17.0755 4.92422 21.9998 11 21.9998C17.0758 21.9998 22 17.0755 22 10.9998C22 4.92397 17.0758 -0.000244141 11 -0.000244141ZM11 20.6248C8.97016 20.6248 7.08813 19.9897 5.53438 18.9129C5.71055 16.7962 7.46797 15.1248 9.625 15.1248H12.375C14.5342 15.1248 16.2912 16.798 16.4661 18.9129C14.9102 19.9888 13.0281 20.6248 11 20.6248ZM17.6902 17.9048C17.0844 15.5244 14.9402 13.7498 12.375 13.7498H9.625C7.05848 13.7498 4.91563 15.5244 4.30977 17.9057C2.50379 16.1173 1.375 13.7068 1.375 10.9998C1.375 5.69312 5.69336 1.37476 11 1.37476C16.3066 1.37476 20.625 5.69312 20.625 10.9998C20.625 13.7068 19.4949 16.1173 17.6902 17.9048ZM11 5.49976C9.10078 5.49976 7.5625 7.03804 7.5625 8.93726C7.5625 10.8365 9.10078 12.3748 11 12.3748C12.8992 12.3748 14.4375 10.8356 14.4375 8.93726C14.4375 7.03804 12.8992 5.49976 11 5.49976ZM11 10.9998C9.86133 10.9998 8.9375 10.0759 8.9375 8.93726C8.9375 7.79858 9.86133 6.87476 11 6.87476C12.1387 6.87476 13.0625 7.79987 13.0625 8.93726C13.0625 10.0746 12.1387 10.9998 11 10.9998Z" fill="black"/>
</g>
<defs>
<clipPath id="clip0_122_43966">
<rect width="22" height="22" fill="white"/>
</clipPath>
</defs>
</svg>
