<svg width="25" height="25" viewBox="0 0 25 25" fill="none" xmlns="http://www.w3.org/2000/svg">
<path id="Vector" d="M0.923731 17.1453L6.22165 14.8739C6.84568 14.6039 7.57762 14.786 8.00145 15.3124L10.1543 17.9402C13.5357 16.2801 16.2823 13.5307 17.9425 10.1524L15.315 8.00212C14.7901 7.57338 14.6114 6.84543 14.8768 6.22143L17.1479 0.923782C17.4454 0.24461 18.1781 -0.126958 18.8954 0.0395394L23.8174 1.17475C24.5132 1.33343 25 1.9462 25 2.662C25 14.9809 14.9803 25 2.66086 25C1.94454 25 1.3337 24.5133 1.17403 23.8174L0.0387596 18.8957C-0.125647 18.1804 0.244914 17.4383 0.923731 17.1453Z" fill="#612C69"/>
</svg>
